<svg id="Layer_8" height="512" viewBox="0 0 24 24" width="512" xmlns="http://www.w3.org/2000/svg" data-name="Layer 8"><path d="m21.5547 8.168-9-6a1.0011 1.0011 0 0 0 -1.1094 0l-9 6a.9993.9993 0 0 0 -.2773 1.3867.9788.9788 0 0 0 .832.427v11.0183a1 1 0 0 0 1 1h16a1 1 0 0 0 1-1v-11a1 1 0 0 0 .5547-1.832zm-11.5547 6.832a2 2 0 0 1 4 0 7.9141 7.9141 0 0 1 -2.0039 4.5044 7.831 7.831 0 0 1 -1.9961-4.5044zm9 5h-4.8691a9.0694 9.0694 0 0 0 1.8691-5 4 4 0 0 0 -8 0 9.0138 9.0138 0 0 0 1.8591 5h-4.8591v-11a.9377.9377 0 0 0 -.0234-.116l7.0234-4.6823 7.0234 4.6823a.9354.9354 0 0 0 -.0234.116z"/><circle cx="12" cy="15" r="1"/><path d="m13 7h-2a1 1 0 0 0 0 2h2a1 1 0 0 0 0-2z"/></svg>